<svg width="14" height="12" viewBox="0 0 14 12" fill="none" xmlns="http://www.w3.org/2000/svg">
<path d="M0.719819 1.48252C0.523039 1.48252 0.352906 1.40873 0.20942 1.26114C0.0700339 1.10946 0.000340812 0.937273 0.000340815 0.744593C0.000340818 0.543713 0.0700339 0.36948 0.20942 0.221895C0.348806 0.0743094 0.518939 0.000516775 0.719819 0.000516779L12.4713 0.000516974C12.6722 0.000516978 12.8423 0.0743096 12.9817 0.221895C13.1252 0.365381 13.1969 0.539613 13.1969 0.744593C13.1969 0.941373 13.1252 1.11356 12.9817 1.26114C12.8423 1.40873 12.6722 1.48252 12.4713 1.48252L0.719819 1.48252ZM0.719819 4.69865C0.523039 4.69865 0.352906 4.62486 0.20942 4.47727C0.0700338 4.32559 0.000340758 4.1534 0.000340761 3.96072C0.000340765 3.75984 0.0700338 3.58766 0.20942 3.44417C0.348806 3.29659 0.518939 3.2228 0.719819 3.2228L7.84696 3.2228C8.04784 3.2228 8.21797 3.29454 8.35736 3.43802C8.49674 3.58151 8.56644 3.75574 8.56644 3.96072C8.56644 4.1575 8.49674 4.32969 8.35736 4.47727C8.21797 4.62486 8.04784 4.69865 7.84696 4.69865L0.719819 4.69865ZM0.719819 7.92093C0.523039 7.92093 0.352906 7.84713 0.20942 7.69955C0.0700338 7.54786 0.000340704 7.37568 0.000340708 7.183C0.000340711 6.98212 0.0700338 6.80789 0.20942 6.6603C0.348806 6.51272 0.518939 6.43892 0.719819 6.43892L12.4713 6.43893C12.6722 6.43893 12.8423 6.51272 12.9817 6.6603C13.1252 6.80379 13.1969 6.97802 13.1969 7.183C13.1969 7.37978 13.1252 7.55196 12.9817 7.69955C12.8423 7.84713 12.6722 7.92093 12.4713 7.92093L0.719819 7.92093ZM0.719819 11.1371C0.523039 11.1371 0.352905 11.0612 0.20942 10.9095C0.0700337 10.7619 0.000340651 10.5918 0.000340654 10.3991C0.000340657 10.1983 0.0700337 10.024 0.20942 9.87643C0.348806 9.72885 0.518939 9.65505 0.719819 9.65505L7.84696 9.65505C8.04784 9.65505 8.21797 9.72885 8.35736 9.87643C8.49674 10.0199 8.56644 10.1942 8.56644 10.3991C8.56644 10.5959 8.49674 10.7681 8.35736 10.9157C8.21797 11.0633 8.04784 11.1371 7.84696 11.1371L0.719819 11.1371Z" fill="#888888"/>
</svg>
