<svg width="8" height="9" viewBox="0 0 8 9" fill="none" xmlns="http://www.w3.org/2000/svg">
<path d="M3.77637 -0.000920127C3.97701 -0.000920123 4.14003 0.0649145 4.26542 0.196584C4.39082 0.325118 4.45352 0.494407 4.45352 0.704451L4.45352 5.9242L4.38299 7.68762L3.99268 7.42899L5.3564 5.85366L6.41916 4.8003C6.47872 4.7376 6.54926 4.68745 6.63077 4.64983C6.71228 4.60907 6.80319 4.58869 6.90351 4.58869C7.08848 4.58869 7.24209 4.64983 7.36435 4.77209C7.48975 4.89435 7.55245 5.0511 7.55245 5.24234C7.55245 5.4273 7.48192 5.59032 7.34084 5.73139L4.27953 8.79741C4.21683 8.86324 4.14003 8.9134 4.04911 8.94789C3.9582 8.98551 3.86728 9.00431 3.77637 9.00431C3.68232 9.00431 3.58984 8.9855 3.49892 8.94789C3.41114 8.9134 3.3359 8.86324 3.2732 8.79741L0.211893 5.73139C0.0708188 5.59032 0.000281695 5.4273 0.000281698 5.24234C0.000281701 5.0511 0.0614138 4.89435 0.183678 4.77209C0.309077 4.64983 0.464259 4.58869 0.649223 4.58869C0.749542 4.58869 0.838889 4.60907 0.917264 4.64983C0.998773 4.68745 1.07088 4.7376 1.13358 4.8003L2.19163 5.85366L3.55535 7.42899L3.16505 7.68762L3.09451 5.9242L3.09451 0.704451C3.09451 0.494407 3.15721 0.325118 3.28261 0.196584C3.40801 0.0649145 3.57259 -0.00092013 3.77637 -0.000920127Z" fill="#8D939E"/>
</svg>
