<svg width="11" height="8" viewBox="0 0 11 8" fill="none" xmlns="http://www.w3.org/2000/svg">
<path d="M0.503401 1.78212C0.327843 1.78212 0.199308 1.74293 0.117799 1.66456C0.0394242 1.58618 0.000236926 1.45922 0.000236929 1.28366L0.000236942 0.503048C0.000236945 0.324354 0.0394242 0.195819 0.117799 0.117445C0.199308 0.0390702 0.327843 -0.000117038 0.503402 -0.000117035L1.28401 -0.000117022C1.45957 -0.000117019 1.58654 0.0390703 1.66491 0.117445C1.74642 0.195819 1.78718 0.324354 1.78718 0.503048L1.78718 1.28366C1.78718 1.45922 1.74642 1.58618 1.66491 1.66456C1.58654 1.74293 1.45957 1.78212 1.28401 1.78212L0.503401 1.78212ZM3.36721 1.78212C3.19165 1.78212 3.06311 1.74293 2.9816 1.66456C2.90323 1.58618 2.86404 1.45922 2.86404 1.28366L2.86404 0.503048C2.86404 0.324354 2.90323 0.195819 2.9816 0.117445C3.06311 0.0390703 3.19165 -0.00011699 3.36721 -0.000116987L4.14782 -0.000116974C4.32338 -0.000116971 4.45034 0.0390703 4.52872 0.117445C4.61023 0.195819 4.65098 0.324354 4.65098 0.503048L4.65098 1.28366C4.65098 1.45922 4.61023 1.58618 4.52872 1.66456C4.45034 1.74293 4.32338 1.78212 4.14782 1.78212L3.36721 1.78212ZM6.23101 1.78212C6.05545 1.78212 5.92692 1.74293 5.84541 1.66456C5.76704 1.58618 5.72785 1.45922 5.72785 1.28366L5.72785 0.503048C5.72785 0.324354 5.76704 0.195819 5.84541 0.117445C5.92692 0.0390703 6.05545 -0.000116942 6.23101 -0.00011694L7.01162 -0.000116927C7.18718 -0.000116924 7.31415 0.0390704 7.39252 0.117445C7.4709 0.195819 7.51009 0.324354 7.51009 0.503048L7.51009 1.28366C7.51009 1.45922 7.4709 1.58618 7.39252 1.66456C7.31415 1.74293 7.18718 1.78212 7.01162 1.78212L6.23101 1.78212ZM9.09482 1.78212C8.91926 1.78212 8.79073 1.74293 8.70922 1.66456C8.63084 1.58618 8.59165 1.45922 8.59165 1.28366L8.59165 0.503048C8.59165 0.324354 8.63084 0.195819 8.70922 0.117445C8.79073 0.0390704 8.91926 -0.000116895 9.09482 -0.000116892L9.87543 -0.000116879C10.051 -0.000116876 10.178 0.0390704 10.2563 0.117445C10.3378 0.195819 10.3786 0.324354 10.3786 0.503048L10.3786 1.28366C10.3786 1.45922 10.3378 1.58618 10.2563 1.66456C10.178 1.74293 10.051 1.78212 9.87543 1.78212L9.09482 1.78212ZM0.526914 4.64593C0.351355 4.64593 0.222821 4.60674 0.141311 4.52836C0.0629365 4.44999 0.0237492 4.32302 0.0237492 4.14746L0.0237493 3.36685C0.0237493 3.19129 0.0629365 3.06433 0.141311 2.98595C0.222821 2.90444 0.351355 2.86369 0.526914 2.86369L1.30752 2.86369C1.48308 2.86369 1.61005 2.90444 1.68842 2.98595C1.76993 3.06433 1.81069 3.19129 1.81069 3.36685L1.81069 4.14746C1.81069 4.32302 1.76993 4.44999 1.68842 4.52836C1.61005 4.60674 1.48308 4.64593 1.30752 4.64593L0.526914 4.64593ZM3.39072 4.64593C3.21516 4.64593 3.08663 4.60674 3.00512 4.52836C2.92674 4.44999 2.88756 4.32302 2.88756 4.14746L2.88756 3.36685C2.88756 3.19129 2.92674 3.06433 3.00512 2.98595C3.08663 2.90444 3.21516 2.86369 3.39072 2.86369L4.17133 2.86369C4.34689 2.86369 4.47386 2.90444 4.55223 2.98595C4.63374 3.06433 4.67449 3.19129 4.67449 3.36685L4.67449 4.14746C4.67449 4.32302 4.63374 4.44999 4.55223 4.52836C4.47386 4.60674 4.34689 4.64593 4.17133 4.64593L3.39072 4.64593ZM6.25453 4.64593C6.07897 4.64593 5.952 4.60674 5.87363 4.52836C5.79525 4.44999 5.75606 4.32302 5.75606 4.14746L5.75606 3.36685C5.75606 3.19129 5.79525 3.06433 5.87363 2.98595C5.952 2.90444 6.07897 2.86369 6.25453 2.86369L7.03514 2.86369C7.21069 2.86369 7.33766 2.90444 7.41604 2.98595C7.49441 3.06433 7.5336 3.19129 7.5336 3.36685L7.5336 4.14746C7.5336 4.32302 7.49441 4.44999 7.41604 4.52836C7.33766 4.60674 7.21069 4.64593 7.03514 4.64593L6.25453 4.64593ZM9.11833 4.64593C8.94277 4.64593 8.81424 4.60674 8.73273 4.52836C8.65435 4.44999 8.61517 4.32302 8.61517 4.14746L8.61517 3.36685C8.61517 3.19129 8.65435 3.06433 8.73273 2.98595C8.81424 2.90444 8.94277 2.86369 9.11833 2.86369L9.89894 2.86369C10.0745 2.86369 10.2015 2.90444 10.2798 2.98595C10.3614 3.06433 10.4021 3.19129 10.4021 3.36685L10.4021 4.14746C10.4021 4.32302 10.3614 4.44999 10.2798 4.52836C10.2015 4.60674 10.0745 4.64593 9.89894 4.64593L9.11833 4.64593ZM0.526914 7.50973C0.351355 7.50973 0.222821 7.47054 0.141311 7.39217C0.0629365 7.3138 0.0237492 7.18526 0.0237492 7.00657L0.0237492 6.23066C0.0237492 6.0551 0.0629365 5.92813 0.141311 5.84976C0.222821 5.76825 0.351355 5.72749 0.526914 5.72749L1.30752 5.72749C1.48308 5.72749 1.61005 5.76825 1.68842 5.84976C1.76993 5.92813 1.81069 6.0551 1.81069 6.23066L1.81069 7.00657C1.81069 7.18526 1.76993 7.3138 1.68842 7.39217C1.61005 7.47054 1.48308 7.50973 1.30752 7.50973L0.526914 7.50973ZM3.39072 7.50973C3.21516 7.50973 3.08663 7.47054 3.00512 7.39217C2.92674 7.3138 2.88756 7.18526 2.88756 7.00657L2.88756 6.23066C2.88756 6.0551 2.92674 5.92813 3.00512 5.84976C3.08663 5.76825 3.21516 5.72749 3.39072 5.72749L4.17133 5.72749C4.34689 5.72749 4.47386 5.76825 4.55223 5.84976C4.63374 5.92813 4.67449 6.0551 4.67449 6.23066L4.67449 7.00657C4.67449 7.18526 4.63374 7.3138 4.55223 7.39217C4.47386 7.47054 4.34689 7.50973 4.17133 7.50973L3.39072 7.50973ZM6.25453 7.50973C6.07897 7.50973 5.952 7.47054 5.87363 7.39217C5.79525 7.3138 5.75606 7.18526 5.75606 7.00657L5.75606 6.23066C5.75606 6.0551 5.79525 5.92813 5.87363 5.84976C5.952 5.76825 6.07897 5.72749 6.25453 5.72749L7.03514 5.72749C7.21069 5.72749 7.33766 5.76825 7.41604 5.84976C7.49441 5.92813 7.5336 6.0551 7.5336 6.23066L7.5336 7.00657C7.5336 7.18526 7.49441 7.3138 7.41604 7.39217C7.33766 7.47054 7.21069 7.50973 7.03514 7.50973L6.25453 7.50973ZM9.11833 7.50973C8.94277 7.50973 8.81424 7.47054 8.73273 7.39217C8.65435 7.3138 8.61517 7.18526 8.61517 7.00657L8.61517 6.23066C8.61517 6.0551 8.65435 5.92813 8.73273 5.84976C8.81424 5.76825 8.94277 5.72749 9.11833 5.72749L9.89894 5.72749C10.0745 5.72749 10.2015 5.76825 10.2798 5.84976C10.3614 5.92813 10.4021 6.0551 10.4021 6.23066L10.4021 7.00657C10.4021 7.18526 10.3614 7.3138 10.2798 7.39217C10.2015 7.47054 10.0745 7.50973 9.89894 7.50973L9.11833 7.50973Z" fill="#8D939E"/>
</svg>
