<svg width="277" height="277" viewBox="0 0 277 277" fill="none" xmlns="http://www.w3.org/2000/svg">
<path d="M6.92748 269.716C4.11089 266.9 2.25195 263.632 1.35064 259.915C0.449333 256.197 0.449333 252.479 1.35064 248.761C2.25195 245.043 4.05456 241.832 6.75848 239.128L107.48 138.238L6.75848 37.5169C4.05456 34.9257 2.25195 31.7711 1.35064 28.0532C0.561996 24.2226 0.561996 20.4484 1.35064 16.7305C2.25195 13.0126 4.11089 9.74538 6.92748 6.9288C9.6314 4.11221 12.8423 2.25326 16.5602 1.35196C20.3908 0.450649 24.165 0.450649 27.8829 1.35196C31.7134 2.25326 34.9807 4.05588 37.6846 6.7598L138.406 107.481L239.127 6.7598C241.831 4.05588 245.042 2.25326 248.76 1.35196C252.477 0.450649 256.195 0.450649 259.913 1.35196C263.631 2.25326 266.898 4.16854 269.715 7.09779C272.531 9.80171 274.39 13.0126 275.292 16.7305C276.306 20.4484 276.306 24.1663 275.292 27.8842C274.39 31.6021 272.588 34.813 269.884 37.5169L169.332 138.238L269.884 239.128C272.588 241.832 274.39 245.043 275.292 248.761C276.193 252.479 276.193 256.197 275.292 259.915C274.39 263.632 272.531 266.9 269.715 269.716C266.898 272.533 263.631 274.392 259.913 275.293C256.195 276.194 252.477 276.194 248.76 275.293C245.042 274.392 241.831 272.589 239.127 269.885L138.406 169.164L37.6846 269.885C34.9807 272.589 31.7698 274.392 28.0519 275.293C24.334 276.194 20.5598 276.194 16.7292 275.293C13.0113 274.392 9.74406 272.533 6.92748 269.716Z" fill="#191919"/>
</svg>
