<svg width="355" height="301" viewBox="0 0 355 301" fill="none" xmlns="http://www.w3.org/2000/svg">
<path d="M17.4055 35.6579C12.6736 35.6579 8.56142 33.9117 5.06885 30.4191C1.68895 26.9265 -0.000999674 22.758 -0.000999674 17.9135C-0.000999674 13.0689 1.68895 8.90038 5.06885 5.40782C8.44876 1.80259 12.561 -2.86549e-05 17.4055 -2.86549e-05H336.806C341.763 -2.86549e-05 345.932 1.74625 349.312 5.23882C352.804 8.73139 354.551 12.9563 354.551 17.9135C354.551 22.758 352.804 26.9265 349.312 30.4191C345.819 33.9117 341.651 35.6579 336.806 35.6579H17.4055ZM17.4055 124.211C12.6736 124.211 8.56142 122.465 5.06885 118.973C1.68895 115.367 -0.000999674 111.142 -0.000999674 106.298C-0.000999674 101.453 1.68895 97.2848 5.06885 93.7923C8.44876 90.2997 12.561 88.5534 17.4055 88.5534H210.567C215.524 88.5534 219.693 90.2997 223.073 93.7923C226.452 97.1722 228.142 101.341 228.142 106.298C228.142 111.142 226.452 115.367 223.073 118.973C219.693 122.465 215.524 124.211 210.567 124.211H17.4055ZM17.4055 212.596C12.6736 212.596 8.56142 210.85 5.06885 207.357C1.68895 203.752 -0.000999674 199.583 -0.000999674 194.851C-0.000999674 190.007 1.68895 185.838 5.06885 182.346C8.44876 178.74 12.561 176.938 17.4055 176.938H336.806C341.763 176.938 345.932 178.684 349.312 182.177C352.804 185.669 354.551 189.894 354.551 194.851C354.551 199.583 352.804 203.752 349.312 207.357C345.819 210.85 341.651 212.596 336.806 212.596H17.4055ZM17.4055 300.98C12.6736 300.98 8.56142 299.234 5.06885 295.741C1.68895 292.249 -0.000999674 288.08 -0.000999674 283.236C-0.000999674 278.391 1.68895 274.223 5.06885 270.73C8.44876 267.125 12.561 265.322 17.4055 265.322H210.567C215.524 265.322 219.693 267.069 223.073 270.561C226.452 274.054 228.142 278.279 228.142 283.236C228.142 288.08 226.452 292.249 223.073 295.741C219.693 299.234 215.524 300.98 210.567 300.98H17.4055Z" fill="#191919"/>
</svg>
